<!-- Generated by IcoMoon.io -->
<svg version="1.1" xmlns="http://www.w3.org/2000/svg" width="17" height="32" viewBox="0 0 17 32">
<title>four-paws</title>
<path d="M11.883 0.037c-0.445 0.138-0.797 0.642-0.885 1.27-0.070 0.498 0.135 1.042 0.45 1.197 0.175 0.087 0.418 0.080 0.613-0.015 0.197-0.098 0.43-0.333 0.545-0.552 0.348-0.667 0.303-1.403-0.107-1.772-0.18-0.163-0.375-0.203-0.615-0.128z"></path>
<path d="M13.973 1.222c-0.398 0.127-0.793 0.488-1.002 0.915-0.098 0.197-0.133 0.357-0.133 0.6 0 0.205 0.008 0.243 0.082 0.393 0.145 0.297 0.31 0.385 0.685 0.362 0.19-0.010 0.242-0.025 0.438-0.118 0.182-0.087 0.258-0.145 0.432-0.322 0.22-0.22 0.332-0.397 0.453-0.715 0.075-0.197 0.080-0.515 0.012-0.712-0.065-0.185-0.258-0.38-0.42-0.42-0.165-0.042-0.383-0.035-0.547 0.018z"></path>
<path d="M9.492 1.235c-0.26 0.093-0.495 0.415-0.605 0.827-0.047 0.18-0.055 0.575-0.012 0.75 0.082 0.335 0.34 0.692 0.565 0.777 0.23 0.087 0.537-0.010 0.735-0.232 0.227-0.257 0.35-0.607 0.35-0.995 0-0.663-0.348-1.165-0.8-1.16-0.075 0-0.18 0.015-0.232 0.032z"></path>
<path d="M10.813 3.652c-0.345 0.053-0.758 0.23-1.17 0.508-0.46 0.308-0.885 0.742-0.955 0.973-0.107 0.36 0.035 0.702 0.36 0.865 0.17 0.085 0.375 0.138 0.74 0.19 0.375 0.055 0.572 0.1 0.76 0.175 0.305 0.125 0.447 0.245 0.818 0.688 0.158 0.19 0.33 0.375 0.383 0.41 0.295 0.205 0.672 0.22 0.875 0.032 0.248-0.23 0.357-0.737 0.303-1.417-0.057-0.74-0.145-1.117-0.355-1.55-0.155-0.32-0.355-0.535-0.637-0.683-0.313-0.165-0.777-0.243-1.12-0.19z"></path>
<path d="M14.38 3.76c-0.265 0.065-0.502 0.205-0.732 0.438-0.285 0.287-0.4 0.51-0.418 0.803-0.015 0.263 0.025 0.395 0.16 0.548 0.082 0.093 0.143 0.13 0.252 0.168 0.568 0.185 1.295-0.192 1.615-0.838 0.1-0.202 0.105-0.22 0.105-0.45 0-0.22-0.008-0.253-0.075-0.375-0.043-0.075-0.115-0.16-0.165-0.195-0.188-0.123-0.475-0.16-0.742-0.098z"></path>
<path d="M13.375 10.76c-0.213 0.045-0.322 0.11-0.5 0.29-0.18 0.18-0.335 0.46-0.415 0.75-0.065 0.23-0.065 0.688 0 0.875 0.092 0.277 0.26 0.502 0.428 0.578 0.162 0.075 0.393 0.063 0.582-0.027 0.635-0.3 0.982-1.353 0.668-2.018-0.172-0.37-0.428-0.518-0.762-0.447z"></path>
<path d="M15.525 11.925c-0.543 0.098-1.103 0.66-1.24 1.242-0.053 0.225-0.037 0.502 0.040 0.678 0.082 0.19 0.26 0.342 0.443 0.38 0.592 0.125 1.292-0.377 1.57-1.127 0.128-0.338 0.087-0.713-0.1-0.957-0.13-0.17-0.443-0.265-0.713-0.215z"></path>
<path d="M10.975 11.947c-0.485 0.158-0.815 0.897-0.69 1.54 0.072 0.363 0.287 0.697 0.53 0.815 0.095 0.045 0.143 0.053 0.28 0.043 0.2-0.015 0.33-0.075 0.47-0.225 0.238-0.245 0.36-0.553 0.377-0.945 0.020-0.393-0.080-0.73-0.297-1.005-0.133-0.168-0.482-0.285-0.67-0.223z"></path>
<path d="M3.275 13.207c-0.305 0.088-0.547 0.3-0.717 0.633-0.292 0.565-0.295 1.175-0.005 1.607 0.147 0.223 0.275 0.29 0.535 0.29 0.17 0 0.22-0.012 0.337-0.072 0.618-0.322 0.955-1.357 0.653-2.005-0.175-0.373-0.48-0.545-0.803-0.453z"></path>
<path d="M5.383 14.385c-0.51 0.13-1.018 0.658-1.157 1.203-0.060 0.235-0.063 0.4-0.010 0.585 0.050 0.177 0.145 0.317 0.282 0.415 0.095 0.067 0.13 0.075 0.33 0.082 0.173 0.008 0.26-0.003 0.393-0.043 0.435-0.133 0.832-0.532 1.035-1.040 0.067-0.17 0.080-0.232 0.080-0.425 0.003-0.275-0.048-0.438-0.185-0.595-0.055-0.063-0.147-0.13-0.205-0.155-0.14-0.055-0.402-0.070-0.563-0.027z"></path>
<path d="M0.86 14.408c-0.378 0.143-0.665 0.675-0.665 1.23 0 0.393 0.122 0.722 0.358 0.96 0.155 0.157 0.297 0.215 0.498 0.195 0.185-0.015 0.327-0.095 0.485-0.27 0.222-0.247 0.34-0.588 0.34-0.985 0-0.387-0.115-0.717-0.33-0.95-0.165-0.182-0.47-0.26-0.685-0.18z"></path>
<path d="M12.1 14.41c-0.498 0.105-1.17 0.51-1.637 0.982-0.29 0.293-0.367 0.425-0.383 0.653-0.020 0.293 0.088 0.51 0.32 0.65 0.19 0.113 0.383 0.168 0.815 0.23 0.822 0.115 1.050 0.24 1.57 0.86 0.303 0.36 0.375 0.425 0.54 0.5 0.465 0.21 0.828 0.010 0.977-0.54 0.055-0.205 0.068-0.617 0.033-1.032-0.057-0.68-0.145-1.045-0.348-1.46-0.195-0.4-0.525-0.678-0.957-0.807-0.217-0.065-0.7-0.082-0.93-0.035z"></path>
<path d="M15.762 14.502c-0.36 0.12-0.652 0.328-0.867 0.617-0.412 0.557-0.318 1.195 0.203 1.34 0.422 0.117 0.88-0.035 1.268-0.422 0.16-0.16 0.225-0.25 0.313-0.425 0.108-0.215 0.11-0.227 0.108-0.447-0.003-0.348-0.117-0.543-0.375-0.64-0.15-0.055-0.508-0.068-0.648-0.023z"></path>
<path d="M1.95 16.875c-0.245 0.063-0.778 0.332-1.075 0.545-0.287 0.205-0.688 0.602-0.785 0.777-0.18 0.332-0.070 0.755 0.247 0.953 0.15 0.093 0.367 0.15 0.838 0.225 0.84 0.133 1.025 0.235 1.535 0.848 0.397 0.475 0.56 0.582 0.885 0.58 0.52-0.005 0.76-0.555 0.68-1.563-0.112-1.448-0.51-2.137-1.357-2.358-0.288-0.075-0.69-0.078-0.968-0.008z"></path>
<path d="M5.808 16.927c-0.405 0.070-0.8 0.35-1.058 0.75-0.12 0.185-0.175 0.367-0.175 0.578 0 0.415 0.223 0.645 0.662 0.685 0.447 0.043 1.008-0.282 1.298-0.75 0.26-0.418 0.253-0.85-0.015-1.108-0.145-0.14-0.44-0.205-0.713-0.155z"></path>
<path d="M5.747 24.422c-0.28 0.11-0.485 0.32-0.65 0.665-0.287 0.602-0.247 1.245 0.103 1.645 0.055 0.063 0.147 0.13 0.205 0.155 0.627 0.253 1.34-0.527 1.35-1.475 0.003-0.348-0.070-0.578-0.258-0.813-0.168-0.207-0.482-0.282-0.75-0.177z"></path>
<path d="M3.493 25.578c-0.152 0.035-0.23 0.087-0.362 0.238-0.235 0.262-0.362 0.61-0.362 0.997-0.002 0.38 0.107 0.695 0.323 0.935 0.158 0.175 0.277 0.233 0.473 0.233 0.705-0.005 1.138-1.148 0.735-1.94-0.043-0.085-0.11-0.195-0.152-0.245-0.133-0.168-0.438-0.27-0.652-0.218z"></path>
<path d="M7.853 25.6c-0.313 0.115-0.615 0.363-0.827 0.675-0.48 0.707-0.295 1.547 0.348 1.595 0.572 0.043 1.19-0.425 1.455-1.1 0.185-0.473 0.060-0.98-0.287-1.165-0.125-0.065-0.518-0.067-0.688-0.005z"></path>
<path d="M4.695 28.025c-0.343 0.063-0.728 0.235-1.157 0.52-0.295 0.195-0.803 0.683-0.888 0.855-0.070 0.14-0.095 0.402-0.050 0.54 0.12 0.367 0.38 0.505 1.152 0.62 0.803 0.12 1.015 0.235 1.527 0.845 0.308 0.365 0.37 0.425 0.542 0.51 0.178 0.087 0.463 0.1 0.6 0.025 0.4-0.215 0.527-0.898 0.375-1.99-0.095-0.695-0.287-1.163-0.61-1.49-0.19-0.192-0.425-0.328-0.7-0.398-0.178-0.047-0.627-0.070-0.793-0.038z"></path>
<path d="M8.258 28.137c-0.365 0.1-0.723 0.38-0.955 0.75-0.23 0.363-0.207 0.843 0.050 1.075 0.258 0.23 0.792 0.212 1.218-0.043 0.3-0.183 0.602-0.563 0.69-0.867 0.12-0.415-0.040-0.8-0.383-0.91-0.16-0.052-0.438-0.052-0.62-0.005z"></path>
</svg>
