<!-- Generated by IcoMoon.io -->
<svg version="1.1" xmlns="http://www.w3.org/2000/svg" width="24" height="32" viewBox="0 0 24 32">
<title>eight-paws</title>
<path d="M11.742 3.125c-0.185 0.035-0.28 0.215-0.26 0.485 0.023 0.292 0.148 0.502 0.363 0.605 0.16 0.075 0.297 0.020 0.41-0.162 0.075-0.118 0.072-0.362-0.002-0.547-0.053-0.132-0.072-0.165-0.165-0.257-0.045-0.045-0.223-0.152-0.242-0.145-0.005 0.002-0.050 0.013-0.102 0.022z"></path>
<path d="M12.758 3.592c-0.078 0.015-0.227 0.198-0.26 0.317-0.080 0.297 0.107 0.708 0.345 0.755 0.102 0.020 0.162 0 0.245-0.085 0.085-0.082 0.11-0.15 0.14-0.35 0.018-0.13 0.015-0.18-0.025-0.29-0.025-0.072-0.078-0.167-0.115-0.21-0.065-0.072-0.207-0.16-0.255-0.152-0.010 0.002-0.045 0.010-0.075 0.015z"></path>
<path d="M10.76 3.643c-0.030 0.005-0.085 0.045-0.125 0.085-0.065 0.067-0.072 0.092-0.072 0.23 0.002 0.187 0.072 0.352 0.22 0.498 0.295 0.293 0.658 0.26 0.72-0.067 0.070-0.367-0.38-0.82-0.742-0.745z"></path>
<path d="M12.047 4.728c-0.148 0.055-0.33 0.228-0.408 0.383-0.172 0.348-0.133 1.030 0.072 1.208 0.072 0.065 0.207 0.095 0.305 0.070 0.035-0.008 0.165-0.115 0.285-0.235 0.277-0.28 0.345-0.32 0.643-0.367 0.325-0.050 0.335-0.055 0.415-0.122 0.092-0.080 0.127-0.23 0.078-0.33-0.080-0.162-0.26-0.303-0.65-0.513-0.223-0.117-0.557-0.16-0.74-0.093z"></path>
<path d="M10.607 4.827c-0.113 0.048-0.143 0.088-0.168 0.225-0.027 0.16 0.115 0.402 0.313 0.527 0.165 0.105 0.422 0.115 0.543 0.025 0.090-0.067 0.113-0.29 0.045-0.41-0.090-0.157-0.15-0.22-0.275-0.298-0.165-0.103-0.325-0.128-0.457-0.070z"></path>
<path d="M7.043 5.775c-0.2 0.037-0.293 0.315-0.215 0.65 0.050 0.22 0.232 0.42 0.415 0.46 0.107 0.025 0.242-0.040 0.308-0.147 0.088-0.143 0.1-0.29 0.043-0.495-0.030-0.1-0.063-0.192-0.072-0.205-0.112-0.145-0.165-0.197-0.253-0.237-0.055-0.027-0.107-0.048-0.115-0.048-0.008 0.003-0.058 0.013-0.11 0.022z"></path>
<path d="M8.050 6.253c-0.13 0.053-0.228 0.213-0.242 0.402-0.035 0.378 0.227 0.728 0.48 0.645 0.328-0.107 0.345-0.775 0.027-1.005-0.102-0.072-0.162-0.082-0.265-0.043z"></path>
<path d="M6.082 6.293c-0.088 0.018-0.207 0.157-0.21 0.242-0.008 0.117 0.005 0.25 0.025 0.265 0.008 0.008 0.037 0.055 0.063 0.107 0.107 0.21 0.362 0.393 0.55 0.393 0.287 0 0.397-0.265 0.242-0.588-0.138-0.285-0.43-0.47-0.67-0.42z"></path>
<path d="M7.33 7.378c-0.145 0.067-0.24 0.155-0.332 0.305-0.218 0.353-0.18 1.153 0.060 1.302 0.085 0.053 0.232 0.072 0.298 0.037 0.032-0.018 0.165-0.135 0.295-0.26 0.225-0.217 0.408-0.335 0.518-0.335 0.15 0.002 0.348-0.033 0.43-0.078 0.355-0.18 0.172-0.55-0.41-0.838-0.040-0.022-0.092-0.048-0.113-0.060-0.077-0.048-0.393-0.122-0.513-0.125-0.077 0-0.168 0.018-0.232 0.050z"></path>
<path d="M5.955 7.46c-0.26 0.090-0.268 0.395-0.015 0.647 0.15 0.15 0.263 0.2 0.452 0.203 0.2 0.002 0.275-0.060 0.298-0.25 0.018-0.143-0.030-0.263-0.16-0.402-0.143-0.152-0.42-0.25-0.575-0.197z"></path>
<path d="M13.145 10.977c-0.053 0.027-0.095 0.065-0.095 0.082s-0.018 0.047-0.040 0.068c-0.030 0.025-0.037 0.065-0.027 0.182 0.020 0.22 0.063 0.33 0.188 0.47 0.13 0.143 0.275 0.22 0.41 0.22 0.225 0 0.332-0.14 0.315-0.41-0.008-0.14-0.023-0.182-0.117-0.32-0.11-0.162-0.255-0.285-0.365-0.307-0.035-0.008-0.088-0.018-0.117-0.023-0.033-0.008-0.1 0.010-0.15 0.037z"></path>
<path d="M14.213 11.19c-0.085 0.092-0.12 0.22-0.105 0.385 0.015 0.172 0.090 0.33 0.225 0.463 0.092 0.095 0.105 0.1 0.258 0.1 0.175 0 0.195-0.015 0.283-0.2 0.085-0.18 0.008-0.475-0.178-0.668-0.148-0.155-0.377-0.193-0.482-0.080z"></path>
<path d="M12.575 11.713c-0.020 0.005-0.078 0.015-0.127 0.025-0.125 0.020-0.19 0.082-0.22 0.21-0.020 0.088-0.015 0.127 0.025 0.225 0.053 0.117 0.235 0.328 0.287 0.328 0.015 0 0.043 0.015 0.057 0.035 0.018 0.020 0.107 0.050 0.203 0.068 0.223 0.040 0.363-0.005 0.435-0.137 0.085-0.16-0.005-0.425-0.203-0.588-0.072-0.060-0.377-0.19-0.412-0.175-0.005 0.002-0.025 0.008-0.045 0.010z"></path>
<path d="M14.13 12.328c-0.21 0.040-0.352 0.168-0.475 0.418-0.127 0.265-0.080 0.668 0.125 1.055 0.040 0.075 0.090 0.158 0.113 0.182 0.072 0.078 0.2 0.125 0.295 0.107s0.23-0.12 0.265-0.2c0.012-0.030 0.033-0.072 0.047-0.098 0.012-0.023 0.037-0.063 0.050-0.088 0.015-0.023 0.037-0.070 0.053-0.105 0.072-0.172 0.275-0.34 0.523-0.432 0.162-0.063 0.3-0.188 0.322-0.293 0.018-0.088-0.033-0.275-0.075-0.275-0.010 0-0.035-0.015-0.053-0.033-0.055-0.050-0.195-0.113-0.443-0.193s-0.505-0.095-0.748-0.047z"></path>
<path d="M12.633 12.877c-0.162 0.047-0.25 0.235-0.185 0.402 0.040 0.102 0.182 0.23 0.357 0.315 0.127 0.063 0.31 0.065 0.453 0.008 0.040-0.015 0.080-0.027 0.092-0.027s0.030-0.023 0.037-0.050c0.008-0.027 0.027-0.050 0.040-0.050s0.023-0.050 0.023-0.11c0-0.328-0.447-0.595-0.818-0.488z"></path>
<path d="M8.485 13.615c-0.115 0.057-0.193 0.227-0.172 0.377 0.037 0.252 0.203 0.495 0.418 0.607 0.082 0.043 0.127 0.050 0.217 0.037 0.158-0.023 0.195-0.047 0.252-0.162 0.092-0.18 0.005-0.492-0.188-0.688-0.175-0.172-0.385-0.242-0.527-0.172z"></path>
<path d="M9.54 13.842c-0.075 0.080-0.127 0.295-0.102 0.415 0.030 0.143 0.13 0.328 0.235 0.428 0.092 0.090 0.11 0.098 0.25 0.1 0.165 0.002 0.182-0.010 0.277-0.19 0.045-0.085 0.047-0.113 0.025-0.258-0.035-0.215-0.055-0.268-0.168-0.39-0.168-0.185-0.4-0.232-0.518-0.105z"></path>
<path d="M7.697 14.42c-0.117 0.057-0.147 0.11-0.147 0.262 0 0.127 0.247 0.467 0.34 0.467 0.015 0 0.043 0.015 0.058 0.035 0.018 0.020 0.107 0.050 0.2 0.065 0.213 0.035 0.348-0.008 0.43-0.143 0.050-0.080 0.053-0.1 0.025-0.217-0.015-0.070-0.057-0.16-0.090-0.2-0.035-0.040-0.063-0.080-0.063-0.088 0-0.027-0.238-0.175-0.313-0.193-0.040-0.010-0.085-0.025-0.1-0.033-0.055-0.033-0.232-0.012-0.34 0.043z"></path>
<path d="M9.55 14.945c-0.248 0.033-0.453 0.195-0.565 0.45-0.057 0.127-0.063 0.165-0.053 0.367 0.012 0.24 0.070 0.448 0.197 0.69 0.078 0.15 0.113 0.19 0.232 0.258 0.065 0.038 0.095 0.040 0.18 0.017 0.137-0.038 0.205-0.113 0.332-0.365 0.113-0.225 0.28-0.438 0.34-0.438 0.020 0 0.035-0.010 0.035-0.020s0.072-0.047 0.162-0.082c0.090-0.033 0.21-0.1 0.268-0.15 0.095-0.080 0.105-0.098 0.105-0.213 0.002-0.107-0.008-0.137-0.072-0.2-0.098-0.098-0.24-0.17-0.412-0.21-0.075-0.018-0.152-0.043-0.17-0.057-0.018-0.012-0.13-0.030-0.25-0.035s-0.227-0.012-0.242-0.015c-0.012-0.005-0.053-0.002-0.088 0.002z"></path>
<path d="M19.628 15.527c-0.19 0.158-0.212 0.53-0.045 0.805 0.073 0.117 0.277 0.267 0.37 0.267 0.155 0 0.23-0.055 0.325-0.235 0.050-0.093 0.050-0.11 0.023-0.297-0.027-0.162-0.050-0.227-0.135-0.352-0.063-0.095-0.135-0.168-0.19-0.195-0.12-0.057-0.273-0.055-0.348 0.008z"></path>
<path d="M7.987 15.518c-0.093 0.023-0.205 0.127-0.22 0.205-0.040 0.193 0.090 0.367 0.373 0.505 0.135 0.067 0.17 0.075 0.275 0.058 0.287-0.040 0.4-0.145 0.37-0.335-0.023-0.133-0.193-0.348-0.277-0.35-0.018 0-0.033-0.010-0.033-0.023 0-0.050-0.348-0.092-0.487-0.060z"></path>
<path d="M20.712 15.98c-0.16 0.087-0.258 0.328-0.225 0.558 0.020 0.16 0.142 0.39 0.235 0.445 0.14 0.082 0.305 0.040 0.422-0.108 0.063-0.080 0.113-0.32 0.090-0.442-0.060-0.335-0.323-0.563-0.523-0.453z"></path>
<path d="M18.707 16.035c-0.095 0.045-0.125 0.095-0.148 0.258-0.043 0.335 0.358 0.76 0.677 0.715 0.205-0.027 0.31-0.195 0.262-0.42-0.080-0.39-0.503-0.685-0.793-0.552z"></path>
<path d="M20.090 17.067c-0.15 0.038-0.39 0.253-0.457 0.407-0.008 0.020-0.035 0.085-0.060 0.142-0.095 0.212-0.032 0.845 0.098 1.018 0.073 0.093 0.12 0.115 0.255 0.115 0.11 0 0.218-0.065 0.355-0.215 0.245-0.267 0.363-0.345 0.598-0.385 0.090-0.015 0.172-0.025 0.185-0.023 0.015 0.003 0.060-0.003 0.1-0.015 0.2-0.052 0.328-0.2 0.3-0.348-0.030-0.155-0.262-0.375-0.55-0.515-0.067-0.035-0.13-0.070-0.137-0.080-0.008-0.008-0.067-0.030-0.133-0.045-0.065-0.017-0.125-0.040-0.133-0.052-0.012-0.023-0.335-0.025-0.42-0.005z"></path>
<path d="M18.585 17.188c-0.215 0.113-0.203 0.38 0.032 0.64 0.047 0.052 0.1 0.098 0.115 0.098s0.045 0.017 0.065 0.038c0.052 0.045 0.295 0.082 0.387 0.060 0.258-0.070 0.267-0.4 0.020-0.655-0.177-0.183-0.455-0.265-0.62-0.18z"></path>
<path d="M15 18.148c-0.030 0.020-0.082 0.082-0.117 0.135-0.178 0.282 0.043 0.855 0.363 0.94 0.172 0.047 0.283-0.020 0.377-0.233 0.047-0.102 0.050-0.133 0.027-0.28-0.040-0.253-0.193-0.5-0.348-0.567-0.090-0.040-0.24-0.038-0.303 0.005z"></path>
<path d="M16.087 18.598c-0.113 0.047-0.205 0.177-0.238 0.332-0.035 0.188-0.015 0.317 0.078 0.495 0.080 0.15 0.135 0.198 0.27 0.227 0.352 0.080 0.527-0.587 0.24-0.922-0.11-0.13-0.238-0.177-0.35-0.133z"></path>
<path d="M14.107 18.645c-0.19 0.060-0.258 0.293-0.155 0.532 0.065 0.155 0.238 0.34 0.393 0.418 0.12 0.063 0.293 0.060 0.39-0.005 0.145-0.093 0.168-0.31 0.060-0.525-0.055-0.108-0.262-0.34-0.303-0.34-0.015 0-0.045-0.015-0.065-0.035-0.047-0.043-0.242-0.070-0.32-0.045z"></path>
<path d="M15.38 19.723c-0.145 0.058-0.305 0.212-0.377 0.365-0.033 0.067-0.070 0.148-0.085 0.172-0.035 0.073-0.045 0.43-0.015 0.615 0.055 0.352 0.115 0.457 0.295 0.497 0.17 0.038 0.285-0.027 0.502-0.285 0.162-0.195 0.385-0.308 0.64-0.323 0.203-0.015 0.308-0.055 0.405-0.157 0.085-0.093 0.090-0.108 0.065-0.227-0.023-0.115-0.367-0.455-0.462-0.455-0.017 0-0.050-0.015-0.070-0.032-0.023-0.017-0.102-0.058-0.177-0.090s-0.175-0.073-0.22-0.093c-0.113-0.047-0.37-0.043-0.5 0.012z"></path>
<path d="M13.955 19.817c-0.127 0.063-0.19 0.165-0.17 0.288 0.018 0.105 0.075 0.233 0.13 0.288 0.018 0.017 0.053 0.058 0.078 0.087 0.053 0.067 0.235 0.157 0.36 0.18 0.293 0.050 0.467-0.172 0.348-0.442-0.135-0.302-0.522-0.512-0.745-0.4z"></path>
<path d="M21.255 22.433c-0.030 0.017-0.080 0.075-0.108 0.128-0.045 0.087-0.047 0.113-0.023 0.27 0.030 0.205 0.087 0.323 0.215 0.453 0.18 0.183 0.433 0.227 0.563 0.102 0.080-0.078 0.135-0.273 0.113-0.398-0.045-0.238-0.277-0.54-0.442-0.573-0.122-0.023-0.255-0.017-0.317 0.017z"></path>
<path d="M22.33 22.703c-0.11 0.113-0.15 0.337-0.093 0.51 0.125 0.37 0.407 0.56 0.615 0.41 0.095-0.067 0.12-0.115 0.145-0.3 0.017-0.135 0.012-0.175-0.040-0.31-0.13-0.337-0.448-0.495-0.628-0.31z"></path>
<path d="M20.473 23.142c-0.117 0.058-0.157 0.125-0.157 0.267 0.005 0.2 0.168 0.43 0.395 0.547 0.142 0.078 0.453 0.080 0.53 0.005 0.133-0.128 0.145-0.288 0.035-0.477-0.087-0.155-0.19-0.245-0.37-0.325-0.148-0.065-0.32-0.073-0.433-0.017z"></path>
<path d="M22.225 23.817c-0.17 0.030-0.25 0.065-0.34 0.15-0.238 0.225-0.315 0.488-0.258 0.865 0.015 0.095 0.043 0.203 0.063 0.238 0.020 0.038 0.035 0.082 0.035 0.1 0 0.040 0.115 0.25 0.168 0.31 0.020 0.023 0.073 0.060 0.117 0.080 0.17 0.080 0.372-0.055 0.532-0.358 0.045-0.082 0.108-0.18 0.137-0.218 0.078-0.090 0.247-0.203 0.335-0.225 0.148-0.035 0.375-0.16 0.433-0.238 0.102-0.14 0.043-0.323-0.148-0.45-0.26-0.172-0.802-0.302-1.075-0.255z"></path>
<path d="M20.683 24.277c-0.142 0.027-0.205 0.090-0.223 0.225-0.045 0.332 0.425 0.652 0.785 0.532 0.148-0.050 0.172-0.073 0.2-0.198 0.045-0.203-0.087-0.392-0.372-0.532-0.12-0.058-0.21-0.065-0.39-0.027z"></path>
<path d="M16.65 25.043c-0.098 0.043-0.177 0.188-0.172 0.315 0.010 0.29 0.183 0.575 0.422 0.7 0.102 0.052 0.293 0.038 0.37-0.030 0.055-0.045 0.105-0.198 0.105-0.317 0-0.21-0.16-0.5-0.34-0.613-0.085-0.052-0.315-0.085-0.385-0.055z"></path>
<path d="M17.808 25.275c-0.11 0.025-0.175 0.11-0.21 0.275-0.093 0.438 0.325 0.9 0.628 0.695 0.152-0.105 0.188-0.398 0.075-0.65-0.058-0.133-0.163-0.247-0.28-0.305-0.085-0.043-0.093-0.045-0.212-0.015z"></path>
<path d="M15.925 25.753c-0.078 0.015-0.135 0.045-0.185 0.1-0.065 0.075-0.070 0.090-0.055 0.218 0.035 0.29 0.283 0.523 0.618 0.58 0.145 0.025 0.177 0.023 0.245-0.012 0.175-0.090 0.215-0.277 0.102-0.49-0.058-0.115-0.262-0.32-0.317-0.323-0.010-0.003-0.065-0.023-0.12-0.050-0.11-0.052-0.125-0.055-0.287-0.023z"></path>
<path d="M17.543 26.453c-0.067 0.015-0.165 0.052-0.218 0.085-0.108 0.067-0.275 0.273-0.275 0.335 0 0.023-0.017 0.073-0.038 0.113-0.11 0.207 0.040 0.88 0.247 1.11 0.145 0.163 0.315 0.152 0.488-0.025 0.058-0.058 0.102-0.113 0.102-0.122s0.040-0.087 0.090-0.172c0.113-0.185 0.27-0.33 0.415-0.375 0.14-0.045 0.348-0.14 0.395-0.18 0.087-0.075 0.13-0.172 0.113-0.262-0.040-0.212-0.343-0.387-0.828-0.483-0.285-0.055-0.313-0.055-0.492-0.023z"></path>
<path d="M16.1 26.898c-0.19 0.040-0.275 0.13-0.275 0.29 0 0.142 0.14 0.337 0.3 0.418 0.31 0.155 0.65 0.090 0.688-0.13 0.025-0.145-0.003-0.233-0.11-0.345-0.17-0.177-0.415-0.273-0.602-0.233z"></path>
</svg>
