<!-- Generated by IcoMoon.io -->
<svg version="1.1" xmlns="http://www.w3.org/2000/svg" width="32" height="32" viewBox="0 0 32 32">
<title>six-paws</title>
<path d="M30.58 13.482c-0.108 0.040-0.247 0.155-0.308 0.252-0.047 0.078-0.063 0.23-0.027 0.28 0.080 0.115 0.313 0.145 0.492 0.063 0.125-0.055 0.277-0.223 0.3-0.328 0.050-0.227-0.185-0.365-0.457-0.268z"></path>
<path d="M18.477 13.557c-0.108 0.043-0.267 0.178-0.315 0.268-0.078 0.148-0.050 0.305 0.063 0.363 0.198 0.102 0.532-0.033 0.65-0.262 0.108-0.21 0.027-0.375-0.19-0.39-0.067-0.005-0.16 0.005-0.207 0.023z"></path>
<path d="M6.987 13.623c-0.315 0.078-0.522 0.428-0.35 0.588 0.13 0.12 0.367 0.1 0.57-0.045 0.085-0.063 0.192-0.235 0.192-0.31 0-0.188-0.18-0.287-0.412-0.232z"></path>
<path d="M31.462 13.893c-0.027 0.005-0.093 0.023-0.145 0.035-0.113 0.030-0.302 0.195-0.337 0.293-0.030 0.090 0.012 0.223 0.095 0.285 0.168 0.123 0.497 0.068 0.685-0.113 0.18-0.172 0.18-0.357-0.005-0.453-0.082-0.043-0.223-0.065-0.293-0.047z"></path>
<path d="M19.337 13.922c-0.212 0.053-0.415 0.225-0.448 0.377-0.063 0.322 0.47 0.412 0.767 0.13 0.215-0.203 0.18-0.432-0.073-0.502-0.108-0.030-0.137-0.030-0.247-0.005z"></path>
<path d="M7.798 14.050c-0.375 0.063-0.598 0.387-0.397 0.575 0.178 0.165 0.553 0.107 0.745-0.11 0.227-0.258 0.027-0.525-0.348-0.465z"></path>
<path d="M29.625 14.043c-0.16 0.047-0.24 0.16-0.212 0.297 0.008 0.047 0.052 0.165 0.1 0.262 0.117 0.245 0.128 0.33 0.065 0.57-0.075 0.283-0.070 0.365 0.025 0.457 0.067 0.070 0.085 0.075 0.192 0.060 0.155-0.020 0.345-0.14 0.57-0.355 0.212-0.205 0.285-0.338 0.285-0.535 0-0.25-0.15-0.46-0.422-0.598-0.203-0.102-0.517-0.185-0.602-0.16z"></path>
<path d="M17.483 14.21c-0.082 0.037-0.157 0.15-0.157 0.242 0 0.030 0.035 0.123 0.080 0.207 0.168 0.325 0.175 0.345 0.172 0.488 0 0.078-0.012 0.18-0.027 0.227-0.032 0.113-0.032 0.29 0.003 0.355 0.015 0.027 0.063 0.065 0.11 0.082 0.16 0.068 0.36-0.037 0.652-0.345 0.313-0.322 0.37-0.53 0.227-0.813-0.030-0.060-0.090-0.143-0.137-0.182-0.227-0.2-0.735-0.345-0.922-0.262z"></path>
<path d="M5.907 14.225c-0.080 0.033-0.143 0.143-0.14 0.245 0.003 0.047 0.045 0.178 0.098 0.287 0.115 0.245 0.135 0.408 0.070 0.595-0.103 0.307-0.035 0.498 0.178 0.498 0.275 0 0.808-0.455 0.89-0.758 0.075-0.277-0.11-0.59-0.44-0.745-0.265-0.125-0.527-0.175-0.655-0.123z"></path>
<path d="M31.305 14.735c-0.133 0.043-0.2 0.102-0.247 0.21-0.030 0.072-0.030 0.092 0.008 0.17 0.142 0.3 0.733 0.335 0.898 0.055 0.155-0.262-0.29-0.555-0.657-0.435z"></path>
<path d="M19.3 14.752c-0.168 0.053-0.3 0.19-0.3 0.32 0 0.068 0.113 0.195 0.227 0.252 0.108 0.055 0.325 0.065 0.477 0.025 0.115-0.033 0.235-0.15 0.258-0.25 0.050-0.232-0.348-0.443-0.663-0.348z"></path>
<path d="M7.713 14.873c-0.195 0.050-0.313 0.168-0.313 0.313 0 0.133 0.205 0.293 0.418 0.325 0.258 0.037 0.533-0.11 0.533-0.287 0-0.12-0.078-0.232-0.205-0.293-0.123-0.060-0.322-0.088-0.433-0.057z"></path>
<path d="M30.58 15.367c-0.12 0.057-0.168 0.165-0.133 0.285 0.052 0.175 0.255 0.297 0.497 0.297 0.235 0 0.39-0.137 0.345-0.307-0.060-0.24-0.462-0.398-0.71-0.275z"></path>
<path d="M18.613 15.425c-0.093 0.037-0.172 0.148-0.172 0.232 0 0.193 0.23 0.355 0.5 0.353 0.25-0.003 0.415-0.145 0.37-0.32-0.025-0.1-0.157-0.225-0.277-0.26-0.113-0.035-0.345-0.037-0.42-0.005z"></path>
<path d="M6.96 15.51c-0.223 0.098-0.207 0.37 0.027 0.515 0.125 0.078 0.417 0.1 0.532 0.040 0.103-0.052 0.162-0.17 0.143-0.268-0.050-0.23-0.457-0.395-0.702-0.287z"></path>
<path d="M12.617 15.613c-0.258 0.090-0.373 0.352-0.217 0.5 0.15 0.145 0.475 0.108 0.668-0.075 0.092-0.088 0.107-0.117 0.107-0.203 0-0.11-0.060-0.197-0.168-0.238-0.088-0.033-0.277-0.025-0.39 0.015z"></path>
<path d="M11.633 15.918c-0.075 0.015-0.175 0.12-0.19 0.203-0.008 0.038 0.010 0.175 0.037 0.305 0.063 0.29 0.053 0.372-0.078 0.622-0.115 0.223-0.127 0.337-0.053 0.435 0.1 0.128 0.328 0.105 0.675-0.070 0.385-0.195 0.572-0.433 0.543-0.695-0.025-0.2-0.133-0.385-0.305-0.525-0.225-0.18-0.495-0.3-0.63-0.275z"></path>
<path d="M24.85 15.973c-0.267 0.082-0.438 0.315-0.34 0.465 0.070 0.108 0.152 0.142 0.323 0.142 0.355 0 0.633-0.3 0.47-0.51-0.078-0.098-0.295-0.145-0.453-0.098z"></path>
<path d="M1.363 16.080c-0.185 0.065-0.33 0.253-0.298 0.383 0.022 0.093 0.145 0.183 0.278 0.203 0.262 0.040 0.583-0.157 0.583-0.36 0-0.105-0.063-0.192-0.167-0.233-0.080-0.030-0.3-0.025-0.395 0.008z"></path>
<path d="M13.33 16.177c-0.14 0.027-0.273 0.11-0.332 0.207-0.057 0.095-0.057 0.122-0.008 0.23 0.115 0.245 0.64 0.253 0.842 0.012 0.215-0.255-0.095-0.532-0.502-0.45z"></path>
<path d="M23.703 16.365c-0.1 0.082-0.12 0.195-0.067 0.398 0.070 0.277 0.055 0.433-0.060 0.663-0.142 0.282-0.135 0.435 0.025 0.5 0.122 0.050 0.308 0.015 0.56-0.113 0.407-0.203 0.575-0.395 0.573-0.665-0.003-0.165-0.065-0.323-0.183-0.457-0.163-0.185-0.53-0.39-0.7-0.39-0.040 0-0.105 0.027-0.148 0.065z"></path>
<path d="M0.302 16.385c-0.133 0.073-0.15 0.18-0.087 0.51 0.048 0.26 0.038 0.317-0.102 0.587-0.063 0.117-0.113 0.247-0.113 0.288 0 0.102 0.085 0.2 0.193 0.22 0.275 0.052 0.91-0.282 1.050-0.55 0.025-0.047 0.042-0.137 0.042-0.23 0-0.3-0.21-0.575-0.59-0.77-0.185-0.095-0.292-0.11-0.393-0.055z"></path>
<path d="M25.422 16.585c-0.255 0.090-0.367 0.295-0.245 0.45 0.105 0.135 0.308 0.188 0.54 0.14 0.19-0.040 0.358-0.195 0.358-0.33 0-0.225-0.355-0.367-0.652-0.26z"></path>
<path d="M1.965 16.685c-0.125 0.047-0.26 0.18-0.278 0.277-0.020 0.1 0.055 0.218 0.172 0.273 0.268 0.125 0.618 0.043 0.748-0.177 0.065-0.113 0.025-0.235-0.11-0.325-0.123-0.080-0.382-0.102-0.532-0.047z"></path>
<path d="M13.060 16.985c-0.283 0.128-0.223 0.435 0.115 0.587 0.137 0.063 0.37 0.070 0.488 0.012 0.115-0.052 0.175-0.183 0.137-0.295-0.030-0.095-0.15-0.215-0.275-0.277-0.115-0.060-0.365-0.075-0.465-0.027z"></path>
<path d="M25.262 17.363c-0.13 0.045-0.212 0.142-0.212 0.245 0 0.265 0.445 0.492 0.738 0.38 0.135-0.050 0.188-0.117 0.188-0.24 0-0.13-0.090-0.247-0.25-0.328-0.172-0.085-0.332-0.105-0.462-0.058z"></path>
<path d="M12.313 17.422c-0.063 0.027-0.13 0.102-0.137 0.152-0.020 0.142 0.002 0.205 0.12 0.32 0.178 0.177 0.43 0.233 0.598 0.13 0.332-0.203-0.203-0.758-0.58-0.602z"></path>
<path d="M1.762 17.47c-0.22 0.102-0.24 0.28-0.050 0.468 0.163 0.165 0.435 0.233 0.62 0.152 0.277-0.117 0.225-0.435-0.098-0.582-0.183-0.082-0.347-0.098-0.472-0.038z"></path>
<path d="M24.485 17.81c-0.16 0.073-0.195 0.195-0.11 0.367 0.102 0.2 0.413 0.34 0.608 0.275 0.128-0.043 0.2-0.142 0.183-0.25-0.043-0.27-0.442-0.5-0.68-0.392z"></path>
<path d="M1 17.892c-0.127 0.065-0.167 0.152-0.13 0.277 0.060 0.2 0.253 0.348 0.485 0.372 0.308 0.030 0.43-0.238 0.215-0.48-0.155-0.177-0.41-0.253-0.57-0.17z"></path>
</svg>
