<!-- Generated by IcoMoon.io -->
<svg version="1.1" xmlns="http://www.w3.org/2000/svg" width="25" height="32" viewBox="0 0 25 32">
<title>wildcat-paw</title>
<path d="M9.020 0.113c-0.008 0.042-0.143 1.008-0.297 2.145l-0.285 2.070-0.273 0.33c-0.15 0.183-0.308 0.365-0.35 0.407-0.617 0.605-1.14 1.742-1.388 3.010-0.245 1.262-0.24 2.705 0.010 3.963 0.292 1.455 0.905 2.638 1.67 3.215 0.68 0.515 1.438 0.535 2.11 0.055 0.918-0.652 1.592-2.078 1.842-3.895 0.055-0.387 0.075-0.688 0.050-0.688-0.012 0-0.023-0.307-0.023-0.682 0-0.665-0.027-1.060-0.102-1.537-0.193-1.207-0.63-2.445-1.095-3.078-0.24-0.332-0.65-0.695-0.96-0.85-0.1-0.050-0.123-0.080-0.223-0.295l-0.115-0.24-0.145-1.053c-0.080-0.58-0.203-1.47-0.273-1.978-0.070-0.51-0.13-0.935-0.135-0.95-0.002-0.012-0.012 0.010-0.020 0.050z"></path>
<path d="M16.19 0.438c-0.010 0.055-0.163 0.837-0.34 1.737s-0.37 1.883-0.43 2.18l-0.105 0.543-0.23 0.152c-0.55 0.362-1.010 1.008-1.245 1.737-0.438 1.37-0.63 2.433-0.658 3.642-0.008 0.342-0.025 0.62-0.035 0.62-0.033 0-0.027 0.117 0.015 0.488 0.238 2.060 1.050 3.69 2.11 4.248 0.488 0.255 1.068 0.255 1.553 0 0.898-0.47 1.637-1.735 1.975-3.377 0.247-1.19 0.265-2.64 0.047-3.857-0.225-1.268-0.733-2.428-1.348-3.085-0.105-0.11-0.302-0.338-0.438-0.503l-0.25-0.3-0.293-2.125c-0.163-1.167-0.297-2.14-0.302-2.163-0.005-0.020-0.015 0.008-0.027 0.063z"></path>
<path d="M1.087 8.36c-0.482 0.217-0.877 1.135-1.028 2.39-0.060 0.5-0.060 1.505 0 1.988 0.080 0.633 0.208 1.168 0.367 1.55 0.068 0.152 0.073 0.19 0.057 0.338-0.020 0.21 0.028 0.853 0.092 1.238 0.395 2.37 2.022 4.725 3.645 5.277 0.367 0.125 0.625 0.155 0.92 0.105 0.348-0.060 0.565-0.172 0.822-0.43 0.407-0.41 0.633-1.003 0.683-1.813 0.065-1.073-0.18-2.235-0.723-3.428-0.965-2.127-2.697-3.57-3.975-3.318-0.103 0.023-0.195 0.030-0.205 0.023-0.025-0.027-0.188-0.505-0.258-0.762-0.272-1.008-0.35-2.16-0.202-3.012l0.030-0.18h-0.075c-0.042 0.002-0.11 0.018-0.153 0.035z"></path>
<path d="M23.615 8.518c0.175 0.99 0.032 2.383-0.35 3.47-0.087 0.25-0.113 0.3-0.152 0.297-0.027-0.002-0.157-0.018-0.288-0.033-0.383-0.047-0.742 0.030-1.212 0.262-0.83 0.41-1.688 1.313-2.313 2.422-0.745 1.327-1.128 2.82-1.047 4.075 0.047 0.727 0.247 1.315 0.582 1.712 1.232 1.462 3.788-0.155 5.005-3.168 0.37-0.92 0.558-1.795 0.57-2.695 0.008-0.418 0.012-0.46 0.070-0.6 0.262-0.613 0.402-1.495 0.402-2.513 0-1.155-0.185-2.133-0.525-2.78-0.2-0.377-0.492-0.645-0.71-0.645h-0.065l0.032 0.193z"></path>
<path d="M12.012 17.793c-0.42 0.035-0.928 0.177-1.297 0.363-0.377 0.188-0.543 0.308-0.72 0.517-0.518 0.61-0.838 1.18-1.393 2.47-0.165 0.387-0.342 0.765-0.395 0.837-0.47 0.665-1.195 1.23-1.795 1.395-1.085 0.295-2.138 0.867-2.72 1.473-0.28 0.293-0.422 0.495-0.652 0.93-0.328 0.625-0.47 1.212-0.467 1.957 0 0.707 0.147 1.328 0.453 1.927 0.37 0.723 1.020 1.383 1.698 1.725 0.25 0.125 0.915 0.392 1.103 0.442 0.225 0.060 0.685 0.070 0.912 0.023 0.192-0.043 0.768-0.225 1.020-0.325 0.273-0.11 0.385-0.17 0.742-0.395 1.088-0.69 1.857-1.018 2.762-1.175 0.385-0.065 1.205-0.060 1.6 0.015 1.070 0.198 1.877 0.543 3.173 1.36 0.613 0.387 0.907 0.52 1.378 0.622 0.25 0.055 0.925 0.040 1.235-0.027 0.762-0.163 1.383-0.47 1.905-0.945 1.13-1.025 1.587-2.555 1.235-4.122-0.18-0.793-0.723-1.672-1.345-2.183-0.387-0.315-0.485-0.363-1.135-0.55-0.793-0.23-1.070-0.343-1.465-0.595-0.427-0.273-0.84-0.677-1.125-1.107-0.225-0.337-0.253-0.4-0.78-1.738-0.375-0.955-0.463-1.152-0.57-1.3-0.793-1.1-2.065-1.705-3.355-1.595z"></path>
</svg>
