<!-- Generated by IcoMoon.io -->
<svg version="1.1" xmlns="http://www.w3.org/2000/svg" width="25" height="32" viewBox="0 0 25 32">
<title>wolf-paw</title>
<path d="M12.438 1.173c-0.135 0.032-0.193 0.080-0.242 0.198-0.047 0.107-0.050 0.147-0.037 0.505 0.008 0.212 0.008 0.368-0.002 0.343-0.035-0.085-0.152 0.377-0.207 0.808-0.055 0.445-0.117 0.777-0.213 1.135-0.133 0.497-0.165 0.695-0.17 1.032-0.002 0.31 0 0.333 0.055 0.39 0.030 0.032 0.102 0.075 0.155 0.093 0.055 0.018 0.095 0.037 0.090 0.045-0.008 0.005-0.050-0.003-0.092-0.018l-0.082-0.027 0.063 0.065c0.16 0.173 0.44 0.293 0.75 0.322 0.325 0.030 0.89-0.095 1.26-0.282 0.26-0.13 0.537-0.313 0.65-0.433l0.1-0.103-0.105 0.053c-0.162 0.082-0.127 0.048 0.075-0.072 0.498-0.295 0.79-0.655 0.793-0.97 0-0.343-0.335-0.998-0.853-1.663-0.207-0.265-0.835-0.895-1.060-1.065-0.095-0.070-0.275-0.18-0.4-0.24-0.232-0.11-0.393-0.147-0.525-0.115zM12.193 2.355c-0.008 0.020-0.015 0.013-0.015-0.015-0.002-0.027 0.005-0.042 0.012-0.033 0.008 0.007 0.010 0.030 0.002 0.047zM11.668 4.78c-0.008 0.018-0.012 0.005-0.012-0.030s0.005-0.048 0.012-0.032c0.005 0.018 0.005 0.048 0 0.063zM11.61 5.010c-0.008 0.053-0.020 0.088-0.027 0.080-0.005-0.005-0.002-0.050 0.008-0.1 0.008-0.053 0.020-0.088 0.027-0.080 0.005 0.005 0.002 0.050-0.008 0.1z"></path>
<path d="M5.438 3.145c-0.228 0.143-0.418 0.55-0.515 1.105-0.022 0.135-0.037 0.17-0.048 0.125-0.010-0.048-0.030-0.010-0.080 0.162-0.1 0.338-0.128 0.577-0.128 1.088 0.003 0.89 0.152 1.395 0.52 1.765 0.245 0.247 0.54 0.365 0.912 0.367 0.258 0 0.438-0.048 0.668-0.183 0.178-0.103 0.51-0.388 0.42-0.36l-0.050 0.015 0.050-0.035c0.027-0.020 0.115-0.072 0.195-0.117 0.313-0.178 0.567-0.49 0.567-0.697 0-0.218-0.25-0.933-0.513-1.468-0.27-0.555-0.535-0.938-0.9-1.3-0.372-0.373-0.57-0.49-0.848-0.505-0.145-0.007-0.192-0.002-0.253 0.038zM4.867 4.655c-0.008 0.020-0.015 0.013-0.015-0.015-0.003-0.027 0.005-0.043 0.013-0.032 0.008 0.008 0.010 0.030 0.003 0.048z"></path>
<path d="M14.162 6.577c-0.533 0.053-1.158 0.22-1.578 0.425-0.41 0.2-0.738 0.492-0.848 0.755-0.050 0.117-0.113 0.42-0.113 0.538 0 0.065-0.008 0.082-0.023 0.057-0.018-0.027-0.037 0.012-0.075 0.137-0.080 0.273-0.102 0.465-0.102 0.938 0 0.947 0.195 2.342 0.46 3.273 0.18 0.627 0.518 1.373 0.78 1.725 0.473 0.627 0.92 0.863 1.697 0.893 0.69 0.025 1.22-0.133 1.755-0.525 0.073-0.053 0.128-0.105 0.125-0.115-0.003-0.012 0.052-0.065 0.122-0.12 0.365-0.29 0.703-1.005 0.87-1.84 0.113-0.57 0.128-0.74 0.125-1.543 0-0.662-0.008-0.81-0.055-1.123-0.157-1-0.427-1.755-0.858-2.402-0.297-0.447-0.838-0.92-1.158-1.013-0.285-0.082-0.67-0.103-1.127-0.060zM11.592 8.655c-0.005 0.045-0.010 0.010-0.010-0.080s0.005-0.125 0.010-0.082c0.005 0.045 0.005 0.12 0 0.162zM16.225 14.688c0 0.015-0.24 0.137-0.268 0.137-0.023 0 0.217-0.143 0.25-0.148 0.010-0.002 0.017 0.002 0.017 0.010z"></path>
<path d="M19.75 6.715c-0.015 0.035-0.025 0.067-0.025 0.075s-0.093 0.258-0.203 0.555c-0.113 0.298-0.242 0.655-0.288 0.792-0.047 0.137-0.080 0.21-0.073 0.162 0.020-0.145-0.108 0.203-0.175 0.473-0.295 1.188 0.047 2.070 0.89 2.29 0.258 0.070 0.67 0.018 0.823-0.1 0.020-0.018 0.060-0.040 0.087-0.053 0.040-0.018 0.032-0.023-0.050-0.030-0.085-0.010-0.060-0.018 0.157-0.055 0.337-0.060 0.445-0.12 0.538-0.305 0.065-0.125 0.075-0.175 0.087-0.428 0.025-0.572-0.11-1.277-0.343-1.777-0.297-0.64-1.010-1.515-1.335-1.638-0.063-0.025-0.073-0.020-0.093 0.037zM19.142 8.48c-0.008 0.018-0.012 0.005-0.012-0.030s0.005-0.047 0.012-0.033c0.005 0.018 0.005 0.047 0 0.063zM19.093 8.705c-0.008 0.018-0.012 0.005-0.012-0.030s0.005-0.047 0.012-0.033c0.005 0.018 0.005 0.047 0 0.063zM19.067 8.83c-0.008 0.020-0.015 0.012-0.015-0.015-0.003-0.027 0.005-0.043 0.012-0.033 0.008 0.008 0.010 0.030 0.003 0.047z"></path>
<path d="M6.582 8.15c-0.225 0.040-0.595 0.172-0.7 0.248-0.213 0.152-0.28 0.328-0.285 0.725-0.003 0.145-0.010 0.23-0.018 0.19-0.010-0.072-0.013-0.072-0.045 0.037-0.067 0.215-0.11 0.44-0.147 0.787-0.022 0.193-0.065 0.563-0.098 0.825-0.107 0.85-0.122 1.053-0.105 1.447 0.030 0.758 0.168 1.318 0.478 1.953 0.183 0.377 0.31 0.575 0.527 0.838 0.74 0.89 1.808 1.482 3.048 1.692 0.2 0.032 0.717 0.017 0.883-0.027 0.19-0.050 0.447-0.17 0.53-0.247 0.035-0.032 0.090-0.078 0.125-0.102l0.063-0.045-0.068 0.015c-0.035 0.008-0.085 0.020-0.113 0.027-0.025 0.008-0.018 0 0.018-0.015 0.305-0.14 0.39-0.195 0.492-0.308 0.415-0.457 0.512-1.335 0.295-2.605-0.113-0.648-0.338-1.442-0.58-2.045-0.158-0.393-0.613-1.272-0.86-1.662-0.432-0.68-0.78-1.015-1.363-1.32-0.592-0.307-0.963-0.408-1.548-0.42-0.22-0.005-0.458 0-0.53 0.012z"></path>
<path d="M2.947 9.845c-0.22 0.14-0.58 0.537-0.813 0.893-0.23 0.357-0.36 0.662-0.397 0.947-0.010 0.072-0.025 0.11-0.035 0.092-0.040-0.065-0.103 0.383-0.103 0.738 0 0.527 0.087 0.967 0.262 1.322 0.123 0.245 0.29 0.418 0.502 0.518 0.205 0.098 0.198 0.095 0.438 0.113 0.235 0.018 0.41-0.030 0.63-0.168l0.155-0.1-0.1 0.012c-0.055 0.005-0.078 0.005-0.050-0.002 0.15-0.037 0.433-0.148 0.512-0.197 0.133-0.082 0.245-0.223 0.265-0.33 0.085-0.443-0.498-2.762-0.917-3.658-0.127-0.275-0.167-0.295-0.35-0.18z"></path>
<path d="M20.762 12.002c-0.492 0.063-1.115 0.235-1.438 0.398-0.43 0.215-0.808 0.658-1.28 1.492-0.105 0.182-0.198 0.322-0.207 0.313-0.012-0.010-0.012-0.005-0.005 0.010 0.017 0.027-0.207 0.545-0.225 0.525-0.005-0.005 0.040-0.117 0.102-0.25 0.060-0.133 0.108-0.24 0.1-0.24-0.027 0-0.392 0.79-0.543 1.175-0.172 0.447-0.41 1.235-0.51 1.698-0.058 0.273-0.067 0.375-0.067 0.753-0.003 0.297 0.008 0.47 0.030 0.538 0.168 0.512 0.515 0.825 1.082 0.973 0.375 0.098 0.695 0.122 1.285 0.108 1.265-0.032 2.242-0.325 2.922-0.872 0.117-0.095 0.212-0.18 0.21-0.19s0.108-0.13 0.245-0.267c0.345-0.345 0.525-0.628 0.685-1.075 0.23-0.655 0.273-1.455 0.122-2.335-0.18-1.053-0.695-2.277-1.075-2.553-0.265-0.19-0.848-0.27-1.435-0.197zM17.565 14.867c-0.020 0.037-0.038 0.063-0.040 0.053 0-0.030 0.058-0.145 0.067-0.135 0.008 0.005-0.005 0.043-0.027 0.082zM17.503 15.018c-0.030 0.050-0.035 0.035-0.012-0.030 0.010-0.023 0.023-0.035 0.027-0.027 0.008 0.005 0 0.033-0.015 0.057zM17.453 15.143c-0.030 0.050-0.035 0.035-0.012-0.030 0.010-0.023 0.023-0.035 0.027-0.027 0.008 0.005 0 0.033-0.015 0.057zM17.352 15.402c-0.027 0.060-0.050 0.102-0.050 0.092-0.003-0.030 0.078-0.223 0.087-0.213 0.008 0.005-0.010 0.060-0.038 0.12zM17.275 15.617c-0.027 0.043-0.027 0.043-0.015 0 0.008-0.025 0.015-0.060 0.017-0.075 0-0.023 0.005-0.023 0.012 0 0.008 0.018 0 0.050-0.015 0.075zM17.142 16.030c-0.008 0.020-0.015 0.012-0.015-0.015-0.003-0.027 0.005-0.043 0.012-0.033 0.008 0.008 0.010 0.030 0.003 0.048zM22.163 18.465c-0.090 0.070-0.152 0.090-0.075 0.025 0.043-0.035 0.087-0.063 0.1-0.063 0.015 0 0.003 0.017-0.025 0.038zM22 18.563c0 0.005-0.025 0.023-0.055 0.038-0.055 0.027-0.055 0.025-0.010-0.010 0.052-0.043 0.065-0.047 0.065-0.027z"></path>
<path d="M3.6 15.193c-0.292 0.050-0.65 0.255-0.89 0.515-0.297 0.322-0.498 0.7-0.675 1.278-0.040 0.135-0.058 0.168-0.050 0.102 0.020-0.168-0.153 0.378-0.198 0.625-0.022 0.125-0.048 0.395-0.055 0.6-0.038 0.983 0.22 1.843 0.775 2.587 0.36 0.485 0.942 0.935 1.522 1.177 0.178 0.075 0.43 0.165 0.532 0.188 0.303 0.073 0.475 0.090 0.75 0.078 0.415-0.015 0.605-0.090 0.945-0.363 0.178-0.142 0.263-0.238 0.115-0.128-0.11 0.082-0.183 0.12-0.085 0.043 0.617-0.48 1.105-1.258 1.37-2.183 0.117-0.413 0.152-0.65 0.152-1.063 0.003-0.383 0.003-0.39-0.080-0.575-0.173-0.402-0.535-0.883-1.020-1.35-1.055-1.018-2.357-1.658-3.11-1.533zM1.968 17.28c-0.008 0.020-0.015 0.012-0.015-0.015-0.002-0.027 0.005-0.043 0.012-0.032 0.008 0.008 0.010 0.030 0.002 0.047zM1.942 17.38c-0.008 0.020-0.015 0.012-0.015-0.015-0.002-0.027 0.005-0.043 0.012-0.032 0.008 0.008 0.010 0.030 0.002 0.047zM6.165 21.988c-0.027 0.020-0.063 0.038-0.075 0.038-0.015-0.003 0-0.017 0.035-0.038 0.080-0.047 0.1-0.045 0.040 0z"></path>
<path d="M13.262 16.902c-1.11 0.052-2.48 0.375-3.127 0.735-0.33 0.185-0.553 0.49-0.76 1.043-0.045 0.12-0.092 0.212-0.102 0.207-0.010-0.008-0.012 0.008-0.008 0.030 0.005 0.025-0.018 0.13-0.053 0.233-0.057 0.168-0.065 0.16-0.025-0.025 0.008-0.035-0.012-0.008-0.045 0.063-0.068 0.142-0.22 0.582-0.355 1.025-0.175 0.567-0.207 0.675-0.287 0.887-0.043 0.117-0.14 0.33-0.215 0.475l-0.137 0.262 0.24-0.225-0.125 0.133c-0.46 0.49-1.135 0.91-2.063 1.28-0.63 0.253-0.832 0.385-0.97 0.642-0.105 0.198-0.183 0.495-0.205 0.782-0.018 0.227-0.018 0.23-0.022 0.075l-0.008-0.163-0.048 0.2c-0.058 0.235-0.070 0.65-0.025 0.883 0.085 0.448 0.255 0.78 0.553 1.082 0.23 0.233 0.303 0.288 0.83 0.625 0.532 0.34 0.603 0.4 1.357 1.16 0.68 0.683 0.763 0.762 1.025 0.977 0.598 0.488 1.152 0.747 1.938 0.907 0.922 0.188 2.422 0.297 3.688 0.267 1.92-0.043 2.95-0.253 3.678-0.753 0.177-0.12 0.515-0.415 0.497-0.433-0.008-0.008 0.087-0.115 0.207-0.24 0.495-0.515 0.88-1.142 1.47-2.398 0.133-0.285 0.247-0.512 0.253-0.508 0.008 0.005-0.008 0.045-0.030 0.087-0.055 0.108-0.032 0.098 0.047-0.025 0.038-0.055 0.288-0.323 0.555-0.593 0.267-0.267 0.48-0.492 0.473-0.5-0.005-0.008 0.073-0.1 0.175-0.207 0.83-0.867 1.28-2.060 1.23-3.247-0.035-0.81-0.28-1.448-0.628-1.633-0.090-0.047-0.137-0.055-0.415-0.050-0.425 0.005-0.813 0.065-2.355 0.372-1.515 0.3-1.907 0.363-2.262 0.365-0.293 0-0.343-0.020-0.535-0.223-0.262-0.277-0.488-0.615-1.060-1.595-0.797-1.365-1.070-1.767-1.297-1.9-0.102-0.060-0.137-0.065-0.578-0.095-0.055-0.005-0.268 0-0.475 0.010zM21.425 25.137c-0.017 0.023-0.080 0.075-0.135 0.117-0.087 0.065-0.085 0.060 0.023-0.038 0.13-0.12 0.168-0.145 0.113-0.080zM18.475 29.285c0 0.005-0.043 0.040-0.093 0.078l-0.095 0.067 0.082-0.078c0.075-0.073 0.105-0.093 0.105-0.067z"></path>
<path d="M2.002 16.94c0 0.027 0.007 0.035 0.015 0.015 0.007-0.017 0.005-0.040-0.002-0.047-0.007-0.010-0.015 0.005-0.013 0.032z"></path>
</svg>
